<?xml version="1.0" encoding="UTF-8"?>
<svg width="260px" height="260px" viewBox="0 0 260 260" version="1.1" xmlns="http://www.w3.org/2000/svg" xmlns:xlink="http://www.w3.org/1999/xlink">
    <!-- Generator: Sketch 48.2 (47327) - http://www.bohemiancoding.com/sketch -->
    <title>Artboard 2</title>
    <desc>Created with Sketch.</desc>
    <defs>
        <polygon id="path-1" points="0.000927777778 0.222927273 159.039667 0.222927273 159.039667 96 0.000927777778 96"></polygon>
        <polygon id="path-3" points="0.608018182 0.51 96.3860182 0.51 96.3860182 63.28605 0.608018182 63.28605"></polygon>
    </defs>
    <g id="BlockChain" stroke="none" stroke-width="1" fill="none" fill-rule="evenodd">
        <g id="Artboard-2">
            <rect id="Rectangle-6" fill="#4489FF" x="0" y="0" width="260" height="260" rx="54"></rect>
            <g id="Page-1" transform="translate(47.000000, 56.000000)">
                <g id="Group-3" transform="translate(0.000000, 53.000000)">
                    <mask id="mask-2" fill="white">
                        <use xlink:href="#path-1"></use>
                    </mask>
                    <g id="Clip-2"></g>
                    <path d="M38.65215,79.5232909 L111.120872,79.5232909 C128.451761,79.5232909 142.553983,65.4287455 142.553983,48.1072909 C142.553983,30.7858364 128.451761,16.6912909 111.120872,16.6912909 L38.65215,16.6912909 L38.65215,79.5232909 Z M111.120872,96.0009273 L22.1655389,96.0009273 L22.1655389,16.6912909 L8.23959444,16.6912909 C3.69348333,16.6912909 0.000927777778,13.0100182 0.000927777778,8.45710909 C0.000927777778,3.9042 3.69348333,0.222927273 8.23959444,0.222927273 L111.120872,0.222927273 C137.543983,0.222927273 159.040594,21.7078364 159.040594,48.1072909 C159.040594,74.5160182 137.543983,96.0009273 111.120872,96.0009273 Z" id="Fill-1" fill="#FFFFFF" mask="url(#mask-2)"></path>
                </g>
                <g id="Group-6" transform="translate(22.000000, 0.000000)">
                    <mask id="mask-4" fill="white">
                        <use xlink:href="#path-3"></use>
                    </mask>
                    <g id="Clip-5"></g>
                    <path d="M17.0856545,63.28605 L0.608018182,63.28605 L0.608018182,48.28255 C0.608018182,21.93855 22.0929273,0.5063 48.5016545,0.5063 C74.9103818,0.5063 96.3860182,21.93855 96.3860182,48.28255 L96.3860182,59.8728 L79.9083818,59.8728 L79.9083818,48.28255 C79.9083818,31.00355 65.8231091,16.94355 48.5016545,16.94355 C31.1802,16.94355 17.0856545,31.00355 17.0856545,48.28255 L17.0856545,63.28605 Z" id="Fill-4" fill="#FFFFFF" mask="url(#mask-4)"></path>
                </g>
            </g>
        </g>
    </g>
</svg>