<?xml version="1.0" encoding="UTF-8" standalone="no"?>
<svg width="1280px" height="423px" viewBox="0 0 1280 423" version="1.1" xmlns="http://www.w3.org/2000/svg" xmlns:xlink="http://www.w3.org/1999/xlink">
    <!-- Generator: Sketch 48.2 (47327) - http://www.bohemiancoding.com/sketch -->
    <title>Line Chart</title>
    <desc>Created with Sketch.</desc>
    <defs>
        <rect id="path-1" x="0" y="0" width="1281.24419" height="509.455633"></rect>
        <linearGradient x1="50%" y1="0%" x2="50%" y2="100%" id="linearGradient-3">
            <stop stop-color="#FF55BA" stop-opacity="0.8" offset="0%"></stop>
            <stop stop-color="#FF55BA" stop-opacity="0" offset="100%"></stop>
        </linearGradient>
        <linearGradient x1="50%" y1="0%" x2="50%" y2="100%" id="linearGradient-4">
            <stop stop-color="#00C1D2" stop-opacity="0.8" offset="0%"></stop>
            <stop stop-color="#00C1D2" stop-opacity="0" offset="100%"></stop>
        </linearGradient>
    </defs>
    <g id="1-BCH-Start-A" stroke="none" stroke-width="1" fill="none" fill-rule="evenodd" transform="translate(0.000000, -255.000000)">
        <g id="Group-2">
            <g id="Line-Chart" transform="translate(-8.000000, 168.000000)">
                <g id="Chart">
                    <g id="Lines" transform="translate(7.330364, 0.000000)">
                        <mask id="mask-2" fill="white">
                            <use xlink:href="#path-1"></use>
                        </mask>
                        <g id="Mask"></g>
                        <path d="M1.35221557,332.282078 C56.1026305,333.190044 46.8894342,373.206507 117.173614,372.844354 C187.457794,372.482202 188.976459,284.311717 232.990252,283.765216 C277.004044,283.218716 296.054432,428.23594 350.425762,427.318646 C404.797092,426.401352 414.128427,315.581945 468.576984,315.410839 C523.025541,315.239733 520.618292,382.997367 587.489072,382.594701 C654.359852,382.192036 644.735752,218.130731 699.766857,218.130731 C754.797963,218.130731 734.437152,292.088759 813.17762,291.924369 C891.918087,291.759978 861.012151,88.1614679 931.913511,88.1614679 C1002.81487,88.1614679 979.248535,332.995991 1046.89696,333.190044 C1114.54539,333.384096 1105.00591,243.25524 1161.88042,243.546055 C1218.75492,243.83687 1194.81942,370.258366 1280.14911,369.727156 C1337.03557,369.373016 1345.84368,370.044742 1306.57343,371.742336 L1306.57343,516.062603 L-18.4505981,516.062603 L-18.4505981,330.335776 C-41.748999,331.028 -35.148061,331.676767 1.35221557,332.282078 Z" id="Secondary" stroke="#FF55AD" fill="url(#linearGradient-3)" stroke-linecap="round" stroke-linejoin="round" mask="url(#mask-2)"></path>
                        <path d="M1.11133834,243.653861 C40.8008473,243.653861 59.8887629,261.352199 117.392644,262.280367 C174.896524,263.208535 161.438853,401.709055 233.142633,402.329666 C304.846413,402.950276 276.71334,318.550821 350.425762,317.381284 C424.138184,316.211748 406.823264,145.246005 468.694457,145.246005 C530.565649,145.246005 508.042521,270.803382 588.058232,270.69926 C668.073942,270.595139 638.754621,257.669353 699.766857,258.064111 C760.779093,258.458869 746.434757,424.128981 813.17762,423.783187 C879.920482,423.437392 878.062847,338.458792 931.804029,338.319633 C985.545212,338.180474 988.618977,408.679782 1046.56592,408.460368 C1104.51287,408.240954 1106.79216,350.850653 1162.38334,350.138584 C1217.97452,349.426516 1227.59714,237.426072 1280.52897,237.48659 C1315.81687,237.526935 1321.24898,237.526935 1296.82533,237.48659 L1296.82533,520.445852 L-19.1413968,520.445852 L-19.1413968,240.696137 C-32.099246,242.667953 -25.3483343,243.653861 1.11133834,243.653861 Z" id="Primary" stroke-opacity="0.356063179" stroke="#FFFFFF" fill="url(#linearGradient-4)" stroke-linecap="round" stroke-linejoin="round" mask="url(#mask-2)"></path>
                    </g>
                </g>
            </g>
        </g>
    </g>
</svg>