<?xml version="1.0" encoding="UTF-8"?>
<svg width="127px" height="41px" viewBox="0 0 127 41" version="1.1" xmlns="http://www.w3.org/2000/svg" xmlns:xlink="http://www.w3.org/1999/xlink">
    <!-- Generator: Sketch 48.2 (47327) - http://www.bohemiancoding.com/sketch -->
    <title>Page 1</title>
    <desc>Created with Sketch.</desc>
    <defs>
        <polygon id="path-1" points="0.4407 0.0122 7.272 0.0122 7.272 8.15820237 0.4407 8.15820237"></polygon>
    </defs>
    <g id="4-BCH-Found-home-Copy-3" stroke="none" stroke-width="1" fill="none" fill-rule="evenodd" transform="translate(-52.000000, -13.000000)">
        <g id="Page-1" transform="translate(52.000000, 13.000000)">
            <path d="M11.0781,35.789 L30.6231,35.789 C35.2971,35.789 39.1001,31.986 39.1001,27.312 C39.1001,22.638 35.2971,18.836 30.6231,18.836 L11.0781,18.836 L11.0781,35.789 Z M30.6231,40.235 L6.6321,40.235 L6.6321,18.836 L0.0001,18.836 L0.0001,14.389 L30.6231,14.389 C37.7491,14.389 43.5461,20.187 43.5461,27.312 C43.5461,34.438 37.7491,40.235 30.6231,40.235 Z" id="Fill-1" fill="#357EFF"></path>
            <path d="M11.0781,16.9814 L6.6321,16.9814 L6.6321,12.9234 C6.6321,5.7974 12.4291,0.0004 19.5551,0.0004 C26.6801,0.0004 32.4781,5.7974 32.4781,12.9234 L32.4781,16.0594 L28.0311,16.0594 L28.0311,12.9234 C28.0311,8.2484 24.2291,4.4464 19.5551,4.4464 C14.8801,4.4464 11.0781,8.2484 11.0781,12.9234 L11.0781,16.9814 Z" id="Fill-3" fill="#357EFF"></path>
            <path d="M54.9211,2.4663 C55.7421,2.4653 57.3391,2.7343 57.3401,3.7243 C57.3401,4.1283 57.0601,4.4773 56.6431,4.4783 C56.1821,4.4783 55.8671,4.0853 54.9221,4.0863 C53.5281,4.0863 52.8091,5.2683 52.8101,6.6403 C52.8111,7.9783 53.5431,9.1253 54.9261,9.1243 C55.8711,9.1233 56.2531,8.6503 56.7141,8.6503 C57.2201,8.6493 57.4571,9.1553 57.4571,9.4143 C57.4581,10.4943 55.7601,10.7423 54.9281,10.7433 C52.6451,10.7453 51.0581,8.9353 51.0561,6.6083 C51.0541,4.2683 52.6271,2.4683 54.9211,2.4663" id="Fill-5" fill="#357EFF"></path>
            <path d="M59.1394,3.4077 C59.1384,2.8457 59.4984,2.5297 59.9824,2.5297 C60.4654,2.5297 60.8254,2.8437 60.8264,3.4057 L60.8284,5.7907 L64.3594,5.7877 L64.3574,3.4037 C64.3574,2.8407 64.7174,2.5257 65.2004,2.5257 C65.6844,2.5257 66.0444,2.8397 66.0444,3.4017 L66.0494,9.7897 C66.0504,10.3517 65.6904,10.6677 65.2064,10.6677 C64.7234,10.6677 64.3634,10.3537 64.3624,9.7907 L64.3604,7.3397 L60.8294,7.3427 L60.8314,9.7937 C60.8314,10.3557 60.4724,10.6717 59.9884,10.6717 C59.5054,10.6717 59.1454,10.3577 59.1444,9.7957 L59.1394,3.4077 Z" id="Fill-7" fill="#357EFF"></path>
            <path d="M69.939,7.4699 L72.076,7.4689 L71.027,4.2079 L71.005,4.2079 L69.939,7.4699 Z M69.812,3.3879 C70.003,2.8709 70.441,2.4539 71.015,2.4539 C71.611,2.4529 72.027,2.8459 72.219,3.3859 L74.428,9.5019 C74.496,9.6819 74.518,9.8399 74.518,9.9179 C74.519,10.3569 74.159,10.6609 73.743,10.6609 C73.271,10.6609 73.034,10.4139 72.921,10.0769 L72.583,9.0199 L69.457,9.0229 L69.12,10.0689 C69.008,10.4179 68.772,10.6649 68.311,10.6649 C67.861,10.6659 67.479,10.3289 67.478,9.8789 C67.478,9.6989 67.534,9.5639 67.556,9.5079 L69.812,3.3879 Z" id="Fill-9" fill="#357EFF"></path>
            <path d="M77.6301,6.1257 L78.7881,6.1247 C79.4071,6.1247 79.8341,5.7527 79.8341,5.1237 C79.8331,4.4817 79.4051,4.1337 78.7871,4.1347 L77.6291,4.13469785 L77.6301,6.1257 Z M75.9411,3.4617 C75.9411,2.9217 76.2441,2.5847 76.8071,2.5837 L78.7861,2.5827 C80.5171,2.5807 81.5871,3.3557 81.5881,5.1217 C81.5891,6.3587 80.6561,7.0677 79.5091,7.2487 L81.4221,9.2937 C81.5801,9.4627 81.6481,9.6317 81.6481,9.7887 C81.6481,10.2277 81.3001,10.6547 80.8051,10.6557 C80.6031,10.6557 80.3331,10.5767 80.1521,10.3637 L77.6531,7.3397 L77.6311,7.3397 L77.6331,9.7807 C77.6331,10.3427 77.2741,10.6577 76.7901,10.6587 C76.3071,10.6587 75.9461,10.3447 75.9461,9.7817 L75.9411,3.4617 Z" id="Fill-11" fill="#357EFF"></path>
            <path d="M83.0935,3.3885 C83.0935,2.8265 83.4525,2.5115 83.9365,2.5105 C84.4205,2.5105 84.7805,2.8245 84.7805,3.3875 L84.7855,9.7755 C84.7865,10.3375 84.4265,10.6525 83.9425,10.6525 C83.4595,10.6535 83.0995,10.3385 83.0985,9.7765 L83.0935,3.3885 Z" id="Fill-13" fill="#357EFF"></path>
            <path d="M88.0425,4.1269 L86.8165,4.1279 C86.2765,4.1289 86.0515,3.7349 86.0515,3.3529 C86.0515,2.9589 86.3315,2.5759 86.8155,2.5759 L90.9545,2.5729 C91.4375,2.5729 91.7195,2.9549 91.7195,3.3479 C91.7195,3.7309 91.4955,4.1239 90.9555,4.1249 L89.7295,4.1259 L89.7335,9.7709 C89.7345,10.3329 89.3745,10.6489 88.8915,10.6489 C88.4075,10.6489 88.0475,10.3349 88.0465,9.7729 L88.0425,4.1269 Z" id="Fill-15" fill="#357EFF"></path>
            <path d="M94.6575,6.821 L92.5295,3.831 C92.4285,3.685 92.3725,3.505 92.3715,3.325 C92.3715,2.875 92.7085,2.504 93.1805,2.503 C93.4735,2.503 93.7315,2.627 93.8785,2.84 L95.4995,5.189 L97.1175,2.838 C97.2635,2.624 97.5225,2.5 97.8145,2.5 C98.2865,2.499 98.6245,2.87 98.6245,3.32 C98.6245,3.5 98.5685,3.68 98.4675,3.826 L96.3445,6.819 L96.3465,9.822 C96.3465,10.238 96.1005,10.643 95.5035,10.644 C94.9075,10.644 94.6595,10.24 94.6595,9.824 L94.6575,6.821 Z" id="Fill-17" fill="#357EFF"></path>
            <path d="M53.071,23.51 L54.398,23.509 C55.005,23.509 55.455,23.16 55.455,22.53 C55.454,22.001 55.049,21.642 54.262,21.642 L53.07,21.643 L53.071,23.51 Z M53.068,20.159 L53.946,20.158 C54.497,20.158 54.856,19.831 54.856,19.269 C54.855,18.74 54.439,18.471 53.945,18.471 L53.067,18.472 L53.068,20.159 Z M51.38,17.832 C51.379,17.293 51.75,16.988 52.268,16.988 L54.427,16.986 C55.596,16.986 56.542,17.772 56.542,18.964 C56.543,19.751 56.217,20.28 55.498,20.618 L55.498,20.64 C56.454,20.775 57.208,21.573 57.209,22.551 C57.21,24.137 56.154,24.992 54.602,24.994 L52.285,24.995 C51.768,24.995 51.385,24.67 51.384,24.141 L51.38,17.832 Z" id="Fill-19" fill="#357EFF"></path>
            <path d="M58.7344,17.7927 C58.7344,17.2307 59.0934,16.9157 59.5774,16.9147 C60.0604,16.9147 60.4214,17.2287 60.4214,17.7917 L60.4254,23.4367 L62.4274,23.4347 C63.0014,23.4347 63.2604,23.8617 63.2384,24.2447 C63.2274,24.6157 62.9234,24.9867 62.4294,24.9867 L59.6174,24.9897 C59.0664,24.9897 58.7394,24.6307 58.7394,24.0677 L58.7344,17.7927 Z" id="Fill-21" fill="#357EFF"></path>
            <path d="M70.0957,20.9776 C70.0947,19.6166 69.3847,18.3916 67.9797,18.3926 C66.5737,18.3936 65.8657,19.6196 65.8667,20.9806 C65.8677,22.3526 66.5547,23.5666 67.9837,23.5656 C69.4117,23.5646 70.0967,22.3496 70.0957,20.9776 M64.1127,20.9826 C64.1107,18.6426 65.6837,16.8426 67.9777,16.8406 C70.2387,16.8386 71.8477,18.6936 71.8497,20.9756 C71.8517,23.3036 70.2897,25.1156 67.9847,25.1176 C65.7017,25.1196 64.1147,23.3096 64.1127,20.9826" id="Fill-23" fill="#357EFF"></path>
            <path d="M76.9973,16.8333 C77.8183,16.8333 79.4153,17.1013 79.4163,18.0913 C79.4163,18.4963 79.1353,18.8453 78.7193,18.8453 C78.2583,18.8453 77.9433,18.4523 76.9983,18.4533 C75.6043,18.4543 74.8853,19.6353 74.8863,21.0073 C74.8873,22.3463 75.6193,23.4923 77.0023,23.4913 C77.9473,23.4903 78.3293,23.0173 78.7903,23.0173 C79.2963,23.0173 79.5323,23.5233 79.5333,23.7813 C79.5343,24.8613 77.8363,25.1103 77.0033,25.1103 C74.7213,25.1123 73.1343,23.3023 73.1323,20.9753 C73.1303,18.6353 74.7033,16.8353 76.9973,16.8333" id="Fill-25" fill="#357EFF"></path>
            <path d="M81.2153,17.7298 C81.2153,17.2688 81.5523,16.8978 82.0583,16.8968 C82.5413,16.8968 82.9023,17.2108 82.9023,17.7288 L82.9043,20.1578 L85.6683,17.2088 C85.7923,17.0738 86.0053,16.8938 86.3203,16.8938 C86.7473,16.8938 87.1533,17.2188 87.1533,17.7028 C87.1533,17.9948 86.9733,18.2308 86.6023,18.6028 L84.4793,20.6958 L87.0793,23.4048 C87.3383,23.6738 87.5523,23.9218 87.5523,24.2588 C87.5523,24.7878 87.1363,25.0348 86.6753,25.0358 C86.3493,25.0358 86.1353,24.8448 85.8203,24.5078 L82.9053,21.3608 L82.9073,24.2288 C82.9073,24.6668 82.5703,25.0388 82.0643,25.0388 C81.5813,25.0398 81.2203,24.7248 81.2203,24.2298 L81.2153,17.7298 Z" id="Fill-27" fill="#357EFF"></path>
            <path d="M92.5396,16.8211 C93.3606,16.8201 94.9576,17.0891 94.9586,18.0791 C94.9586,18.4841 94.6776,18.8331 94.2616,18.8331 C93.8006,18.8331 93.4856,18.4401 92.5406,18.4411 C91.1466,18.4421 90.4276,19.6231 90.4286,20.9951 C90.4296,22.3331 91.1616,23.4801 92.5446,23.4791 C93.4896,23.4781 93.8716,23.0051 94.3326,23.0051 C94.8386,23.0051 95.0746,23.5101 95.0756,23.7691 C95.0766,24.8491 93.3786,25.0971 92.5456,25.0981 C90.2636,25.1001 88.6766,23.2901 88.6746,20.9631 C88.6726,18.6231 90.2456,16.8231 92.5396,16.8211" id="Fill-29" fill="#357EFF"></path>
            <path d="M96.7576,17.7625 C96.7576,17.2005 97.1166,16.8855 97.6006,16.8845 C98.0836,16.8845 98.4446,17.1985 98.4446,17.7615 L98.4466,20.1455 L101.9776,20.1425 L101.9766,17.7585 C101.9756,17.1955 102.3346,16.8815 102.8186,16.8805 C103.3026,16.8805 103.6626,17.1945 103.6626,17.7575 L103.6676,24.1445 C103.6686,24.7075 103.3086,25.0225 102.8246,25.0225 C102.3416,25.0225 101.9816,24.7085 101.9806,24.1465 L101.9786,21.6945 L98.4476,21.6975 L98.4496,24.1485 C98.4496,24.7115 98.0906,25.0265 97.6066,25.0265 C97.1236,25.0275 96.7626,24.7125 96.7626,24.1505 L96.7576,17.7625 Z" id="Fill-31" fill="#357EFF"></path>
            <path d="M107.5571,21.825 L109.6941,21.823 L108.6451,18.563 L108.6231,18.563 L107.5571,21.825 Z M107.4301,17.743 C107.6211,17.226 108.0591,16.809 108.6331,16.808 C109.2291,16.808 109.6451,17.201 109.8371,17.741 L112.0461,23.857 C112.1141,24.037 112.1361,24.195 112.1361,24.273 C112.1371,24.712 111.7771,25.016 111.3611,25.016 C110.8881,25.016 110.6521,24.769 110.5391,24.432 L110.2011,23.375 L107.0751,23.377 L106.7381,24.424 C106.6261,24.773 106.3901,25.02 105.9291,25.02 C105.4791,25.02 105.0971,24.683 105.0961,24.234 C105.0961,24.054 105.1521,23.919 105.1751,23.862 L107.4301,17.743 Z" id="Fill-33" fill="#357EFF"></path>
            <path d="M113.5593,17.7492 C113.5593,17.1872 113.9183,16.8722 114.4023,16.8712 C114.8853,16.8712 115.2463,17.1852 115.2463,17.7482 L115.2513,24.1362 C115.2513,24.6982 114.8923,25.0132 114.4083,25.0132 C113.9243,25.0142 113.5643,24.6992 113.5643,24.1372 L113.5593,17.7492 Z" id="Fill-35" fill="#357EFF"></path>
            <path d="M117.0906,17.7464 C117.0906,17.1844 117.4496,16.8694 117.9336,16.8684 C118.1466,16.8684 118.4956,17.0374 118.6426,17.2394 L122.2106,21.9934 L122.2336,21.9934 L122.2296,17.7424 C122.2296,17.1794 122.5896,16.8654 123.0726,16.8644 C123.5566,16.8644 123.9166,17.1784 123.9166,17.7414 L123.9216,24.1284 C123.9226,24.6914 123.5626,25.0064 123.0796,25.0064 C122.8656,25.0064 122.5276,24.8384 122.3706,24.6364 L118.8016,19.9384 L118.7796,19.9384 L118.7826,24.1334 C118.7826,24.6954 118.4236,25.0104 117.9396,25.0104 C117.4556,25.0114 117.0956,24.6964 117.0956,24.1344 L117.0906,17.7464 Z" id="Fill-37" fill="#357EFF"></path>
            <path d="M53.3735,36.2524 L55.5105,36.2514 L54.4615,32.9904 L54.4395,32.9904 L53.3735,36.2524 Z M53.2465,32.1704 C53.4375,31.6534 53.8755,31.2364 54.4495,31.2364 C55.0455,31.2354 55.4615,31.6284 55.6535,32.1684 L57.8625,38.2844 C57.9305,38.4644 57.9525,38.6224 57.9525,38.7004 C57.9535,39.1394 57.5935,39.4434 57.1775,39.4434 C56.7055,39.4434 56.4685,39.1964 56.3555,38.8594 L56.0175,37.8024 L52.8915,37.8054 L52.5545,38.8514 C52.4425,39.2004 52.2065,39.4474 51.7455,39.4474 C51.2955,39.4484 50.9135,39.1114 50.9125,38.6614 C50.9125,38.4814 50.9685,38.3464 50.9905,38.2904 L53.2465,32.1704 Z" id="Fill-39" fill="#357EFF"></path>
            <path d="M64.1106,32.3529 C64.1106,32.7919 63.8186,33.1859 63.3576,33.1859 C62.8966,33.1859 62.5366,32.8489 61.8616,32.8499 C61.3776,32.8499 60.9396,33.1089 60.9406,33.5819 C60.9406,34.7399 64.6966,33.9939 64.6986,36.8959 C64.7006,38.5039 63.3736,39.5059 61.8216,39.5069 C60.9556,39.5079 59.0886,39.3069 59.0886,38.2499 C59.0876,37.8119 59.3796,37.4519 59.8406,37.4509 C60.3696,37.4509 60.9996,37.8889 61.7306,37.8879 C62.4726,37.8869 62.8776,37.4709 62.8766,36.9199 C62.8756,35.5929 59.1206,36.3949 59.1186,33.7849 C59.1176,32.2109 60.4096,31.2309 61.9046,31.2299 C62.5346,31.2299 64.1096,31.4649 64.1106,32.3529" id="Fill-41" fill="#357EFF"></path>
            <path d="M71.0493,32.3475 C71.0493,32.7865 70.7573,33.1805 70.2963,33.1805 C69.8353,33.1805 69.4753,32.8435 68.8003,32.8445 C68.3163,32.8445 67.8783,33.1035 67.8793,33.5765 C67.8793,34.7345 71.6353,33.9885 71.6373,36.8905 C71.6393,38.4985 70.3123,39.5005 68.7603,39.5015 C67.8943,39.5025 66.0273,39.3015 66.0273,38.2445 C66.0263,37.8055 66.3183,37.4455 66.7793,37.4455 C67.3083,37.4445 67.9383,37.8835 68.6693,37.8825 C69.4113,37.8815 69.8163,37.4655 69.8153,36.9145 C69.8143,35.5875 66.0593,36.3885 66.0573,33.7795 C66.0563,32.2055 67.3483,31.2255 68.8433,31.2245 C69.4733,31.2245 71.0483,31.4595 71.0493,32.3475" id="Fill-43" fill="#357EFF"></path>
            <path d="M78.9238,35.3552 C78.9228,33.9942 78.2138,32.7692 76.8078,32.7702 C75.4018,32.7712 74.6948,33.9972 74.6948,35.3582 C74.6958,36.7302 75.3828,37.9442 76.8118,37.9432 C78.2398,37.9422 78.9248,36.7272 78.9238,35.3552 M72.9408,35.3602 C72.9398,33.0212 74.5118,31.2202 76.8068,31.2182 C79.0668,31.2162 80.6768,33.0712 80.6778,35.3542 C80.6798,37.6822 79.1188,39.4932 76.8128,39.4952 C74.5298,39.4972 72.9428,37.6882 72.9408,35.3602" id="Fill-45" fill="#357EFF"></path>
            <path d="M85.8257,31.2112 C86.6467,31.2112 88.2437,31.4792 88.2447,32.4692 C88.2447,32.8742 87.9637,33.2222 87.5477,33.2232 C87.0867,33.2232 86.7717,32.8302 85.8267,32.8312 C84.4327,32.8322 83.7137,34.0132 83.7147,35.3852 C83.7157,36.7242 84.4477,37.8702 85.8307,37.8692 C86.7757,37.8682 87.1577,37.3962 87.6187,37.3952 C88.1247,37.3952 88.3617,37.9002 88.3617,38.1592 C88.3627,39.2392 86.6647,39.4872 85.8327,39.4882 C83.5497,39.4902 81.9617,37.6812 81.9607,35.3532 C81.9587,33.0132 83.5317,31.2132 85.8257,31.2112" id="Fill-47" fill="#357EFF"></path>
            <path d="M90.0435,32.1526 C90.0435,31.5906 90.4025,31.2756 90.8865,31.2746 C91.3705,31.2746 91.7305,31.5886 91.7305,32.1516 L91.7355,38.5396 C91.7365,39.1016 91.3765,39.4166 90.8935,39.4166 C90.4095,39.4176 90.0495,39.1026 90.0485,38.5406 L90.0435,32.1526 Z" id="Fill-49" fill="#357EFF"></path>
            <path d="M95.625,36.2192 L97.762,36.2172 L96.713,32.9572 L96.691,32.9572 L95.625,36.2192 Z M95.498,32.1372 C95.689,31.6202 96.127,31.2032 96.7,31.2022 C97.297,31.2022 97.713,31.5952 97.905,32.1352 L100.114,38.2512 C100.181,38.4312 100.204,38.5892 100.204,38.6672 C100.204,39.1062 99.845,39.4102 99.428,39.4102 C98.956,39.4102 98.72,39.1632 98.607,38.8262 L98.269,37.7692 L95.143,37.7712 L94.806,38.8182 C94.694,39.1672 94.458,39.4142 93.997,39.4142 C93.547,39.4142 93.164,39.0772 93.164,38.6282 C93.164,38.4482 93.22,38.3132 93.242,38.2562 L95.498,32.1372 Z" id="Fill-51" fill="#357EFF"></path>
            <path d="M101.9429,32.8853 L100.7169,32.8863 C100.1769,32.8873 99.9519,32.4933 99.9519,32.1113 C99.9519,31.7173 100.2319,31.3343 100.7159,31.3343 L104.8539,31.3313 C105.3379,31.3313 105.6189,31.7133 105.6199,32.1063 C105.6199,32.4893 105.3959,32.8823 104.8559,32.8833 L103.6299,32.8843 L103.6339,38.5293 C103.6349,39.0923 103.2749,39.4073 102.7919,39.4073 C102.3079,39.4073 101.9479,39.0933 101.9469,38.5313 L101.9429,32.8853 Z" id="Fill-53" fill="#357EFF"></path>
            <path d="M106.8901,32.1394 C106.8901,31.5774 107.2491,31.2624 107.7331,31.2614 C108.2171,31.2614 108.5771,31.5754 108.5771,32.1384 L108.5821,38.5254 C108.5831,39.0884 108.2231,39.4034 107.7391,39.4034 C107.2561,39.4044 106.8961,39.0894 106.8951,38.5274 L106.8901,32.1394 Z" id="Fill-55" fill="#357EFF"></path>
            <path d="M116.1594,35.3258 C116.1584,33.9648 115.4494,32.7398 114.0434,32.7408 C112.6374,32.7418 111.9304,33.9688 111.9304,35.3288 C111.9314,36.7008 112.6184,37.9148 114.0474,37.9138 C115.4754,37.9128 116.1604,36.6978 116.1594,35.3258 M110.1764,35.3308 C110.1744,32.9918 111.7474,31.1908 114.0414,31.1888 C116.3024,31.1868 117.9124,33.0418 117.9134,35.3248 C117.9154,37.6528 116.3544,39.4638 114.0484,39.4658 C111.7654,39.4678 110.1784,37.6588 110.1764,35.3308" id="Fill-57" fill="#357EFF"></path>
            <g id="Group-61" transform="translate(119.000000, 31.235200)">
                <mask id="mask-2" fill="white">
                    <use xlink:href="#path-1"></use>
                </mask>
                <g id="Clip-60"></g>
                <path d="M0.4407,0.8942 C0.4407,0.3322 0.7997,0.0172 1.2837,0.0162 C1.4977,0.0162 1.8457,0.1852 1.9927,0.3872 L5.5607,5.1412 L5.5837,5.1412 L5.5807,0.8902 C5.5797,0.3272 5.9397,0.0132 6.4227,0.0122 C6.9067,0.0122 7.2667,0.3262 7.2667,0.8892 L7.2727,7.2762 C7.2727,7.8392 6.9127,8.1542 6.4297,8.1542 C6.2157,8.1542 5.8777,7.9862 5.7207,7.7842 L2.1517,3.0862 L2.1297,3.0862 L2.1327,7.2812 C2.1337,7.8432 1.7737,8.1582 1.2907,8.1582 C0.8067,8.1592 0.4467,7.8442 0.4457,7.2822 L0.4407,0.8942 Z" id="Fill-59" fill="#357EFF" mask="url(#mask-2)"></path>
            </g>
        </g>
    </g>
</svg>